<?xml version="1.0" encoding="utf-8"?>
<!-- Generator: Adobe Illustrator 26.0.3, SVG Export Plug-In . SVG Version: 6.00 Build 0)  -->
<svg version="1.1" id="Layer_1" xmlns="http://www.w3.org/2000/svg" xmlns:xlink="http://www.w3.org/1999/xlink" x="0px" y="0px"
	 viewBox="0 0 612.29 241.02" style="enable-background:new 0 0 612.29 241.02;" xml:space="preserve">
<style type="text/css">
	.st0{fill:#3E4F68;}
</style>
<g>
	<g>
		<g>
			<g>
				<path class="st0" d="M69.68,83.93c1.59,2.96-0.23,6.14-3.75,6.14H52.96c-1.14,0-2.16-0.56-2.62-1.59L38.52,65.62
					c-0.23-0.34-0.57-0.56-0.91-0.56h-4.55c-2.05,0-3.53,1.48-3.53,3.52v17.97c0,2.05-1.48,3.53-3.53,3.53H13.27
					c-2.06,0-3.53-1.48-3.53-3.53V13.99c0-2.05,1.47-3.53,3.53-3.53h24.9c20.25,0,28.44,8.64,28.44,27.3
					c0,10.57-2.62,17.97-8.65,22.29c-0.45,0.34-0.56,0.9-0.34,1.47L69.68,83.93z M33.06,30.02c-2.05,0-3.53,1.48-3.53,3.53v8.42
					c0,2.04,1.48,3.53,3.53,3.53h5.79c5.47,0,8.2-0.69,8.2-7.73c0-7.05-2.73-7.74-8.2-7.74H33.06z"/>
				<path class="st0" d="M65.93,90.53H52.96c-1.36,0-2.52-0.71-3.04-1.86L38.11,65.83c-0.11-0.18-0.33-0.32-0.5-0.32h-4.55
					c-1.78,0-3.07,1.29-3.07,3.07v17.97c0,2.31-1.67,3.99-3.98,3.99H13.27c-2.32,0-3.99-1.67-3.99-3.99V13.99
					c0-2.31,1.68-3.99,3.99-3.99h24.9c19.98,0,28.89,8.56,28.89,27.76c0,10.99-2.89,18.41-8.84,22.66
					c-0.38,0.29-0.25,0.75-0.18,0.93l12.03,22.36c0.83,1.54,0.85,3.27,0.04,4.63C69.28,89.73,67.76,90.53,65.93,90.53z M33.06,64.6
					h4.55c0.48,0,0.97,0.29,1.29,0.77l11.86,22.9c0.38,0.85,1.2,1.35,2.21,1.35h12.97c1.5,0,2.74-0.63,3.4-1.74
					c0.65-1.09,0.63-2.45-0.06-3.73l-12.05-22.4c-0.34-0.83-0.15-1.6,0.46-2.06c5.77-4.14,8.46-11.1,8.46-21.93
					c0-18.81-8.37-26.84-27.97-26.84h-24.9c-1.81,0-3.07,1.26-3.07,3.07v72.56c0,1.81,1.27,3.07,3.07,3.07h12.73
					c1.8,0,3.06-1.26,3.06-3.07V68.58C29.07,66.27,30.75,64.6,33.06,64.6z M38.85,45.95h-5.79c-2.32,0-3.99-1.68-3.99-3.99v-8.42
					c0-2.31,1.68-3.98,3.99-3.98h5.79c5.39,0,8.65,0.55,8.65,8.19C47.51,45.4,44.24,45.95,38.85,45.95z M33.06,30.48
					c-1.81,0-3.07,1.26-3.07,3.07v8.42c0,1.78,1.3,3.07,3.07,3.07h5.79c5.38,0,7.74-0.69,7.74-7.28c0-6.62-2.24-7.27-7.74-7.27
					H33.06z"/>
			</g>
			<g>
				<path class="st0" d="M95.37,10.46c2.27,0,3.41,1.14,3.41,3.41v72.79c0,2.16-1.14,3.41-3.41,3.41H82.86
					c-2.16,0-3.41-1.25-3.41-3.41V13.88c0-2.28,1.26-3.41,3.41-3.41H95.37z"/>
				<path class="st0" d="M95.37,90.53H82.86c-2.43,0-3.87-1.45-3.87-3.87V13.88c0-2.46,1.41-3.88,3.87-3.88h12.51
					c2.53,0,3.87,1.34,3.87,3.88v72.79C99.24,89.12,97.83,90.53,95.37,90.53z M82.86,10.92c-1.96,0-2.96,1-2.96,2.96v72.79
					c0,1.9,1.05,2.95,2.96,2.95h12.51c1.96,0,2.95-1,2.95-2.95V13.88c0-2.02-0.94-2.96-2.95-2.96H82.86z"/>
			</g>
			<g>
				<path class="st0" d="M153.02,10.46c1.95,0,3.19,0.8,3.98,2.62l15.48,37.87c0.45,1.03,1.36,0.8,1.36-0.34V13.88
					c0-2.28,1.25-3.41,3.41-3.41h12.75c2.28,0,3.41,1.14,3.41,3.41v72.79c0,2.16-1.13,3.41-3.41,3.41h-16.72
					c-1.93,0-3.18-0.8-3.99-2.61l-15.46-37.87c-0.45-1.03-1.37-0.8-1.37,0.34v36.74c0,2.16-1.14,3.41-3.41,3.41H136.3
					c-2.16,0-3.41-1.25-3.41-3.41V13.88c0-2.28,1.26-3.41,3.41-3.41H153.02z"/>
				<path class="st0" d="M189.99,90.53h-16.72c-2.14,0-3.54-0.92-4.4-2.89l-15.48-37.88c-0.12-0.27-0.27-0.37-0.31-0.37
					c-0.03,0-0.16,0.14-0.16,0.54v36.74c0,2.46-1.41,3.87-3.88,3.87H136.3c-2.43,0-3.88-1.45-3.88-3.87V13.88
					c0-2.46,1.42-3.88,3.88-3.88h16.71c2.15,0,3.55,0.92,4.41,2.89l15.48,37.88c0.12,0.28,0.26,0.37,0.31,0.37
					c0.09-0.1,0.16-0.24,0.16-0.54V13.88c0-2.46,1.41-3.88,3.87-3.88h12.75c2.53,0,3.87,1.34,3.87,3.88v72.79
					C193.85,89.12,192.44,90.53,189.99,90.53z M153.08,48.47c0.47,0,0.9,0.34,1.15,0.93l15.48,37.88c0.72,1.63,1.78,2.33,3.56,2.33
					h16.72c1.95,0,2.95-1,2.95-2.95V13.88c0-2.02-0.94-2.96-2.95-2.96h-12.75c-1.95,0-2.94,1-2.94,2.96v36.73
					c0,0.4-0.09,0.74-0.27,1c-0.2,0.29-0.5,0.46-0.82,0.46l0,0c-0.47,0-0.9-0.35-1.16-0.93l-15.47-37.88
					c-0.72-1.63-1.78-2.33-3.56-2.33H136.3c-1.96,0-2.96,1-2.96,2.96v72.79c0,1.9,1.05,2.95,2.96,2.95h12.73
					c1.96,0,2.96-1,2.96-2.95V49.93C152,48.93,152.56,48.47,153.08,48.47z"/>
			</g>
			<g>
				<path class="st0" d="M140.91,127.54c0-2.27-1.14-3.41-3.41-3.41h-15.93c-2.16,0-3.41-1.25-3.41-3.41v-12.74
					c0-2.28,1.25-3.41,3.41-3.41h58.23c2.28,0,3.42,1.14,3.42,3.41v12.74c0,2.16-1.14,3.41-3.42,3.41h-15.92
					c-2.16,0-3.41,1.14-3.41,3.41v53.23c0,2.16-1.14,3.41-3.42,3.41h-12.73c-2.17,0-3.41-1.25-3.41-3.41V127.54z"/>
				<path class="st0" d="M157.06,184.64h-12.73c-2.42,0-3.87-1.44-3.87-3.87v-53.23c0-2.01-0.94-2.95-2.95-2.95h-15.93
					c-2.42,0-3.87-1.45-3.87-3.88v-12.74c0-2.46,1.41-3.87,3.87-3.87h58.23c2.54,0,3.88,1.34,3.88,3.87v12.74
					c0,2.46-1.42,3.88-3.88,3.88h-15.92c-1.96,0-2.95,0.99-2.95,2.95v53.23C160.94,183.23,159.52,184.64,157.06,184.64z
					 M121.57,105.03c-1.96,0-2.95,0.99-2.95,2.95v12.74c0,1.91,1.05,2.96,2.95,2.96h15.93c2.53,0,3.87,1.34,3.87,3.87v53.23
					c0,1.9,1.05,2.95,2.96,2.95h12.73c1.96,0,2.96-0.99,2.96-2.95v-53.23c0-2.46,1.41-3.87,3.87-3.87h15.92c1.96,0,2.96-1,2.96-2.96
					v-12.74c0-2.02-0.94-2.95-2.96-2.95H121.57z"/>
			</g>
			<g>
				<path class="st0" d="M237.8,104.57c2.28,0,3.41,1.14,3.41,3.41v72.79c0,2.16-1.13,3.41-3.41,3.41h-12.51
					c-2.17,0-3.42-1.25-3.42-3.41v-72.79c0-2.28,1.26-3.41,3.42-3.41H237.8z"/>
				<path class="st0" d="M237.8,184.64h-12.51c-2.43,0-3.88-1.44-3.88-3.87v-72.79c0-2.46,1.42-3.87,3.88-3.87h12.51
					c2.53,0,3.87,1.34,3.87,3.87v72.79C241.67,183.23,240.26,184.64,237.8,184.64z M225.29,105.03c-1.96,0-2.96,0.99-2.96,2.95
					v72.79c0,1.9,1.05,2.95,2.96,2.95h12.51c1.96,0,2.96-0.99,2.96-2.95v-72.79c0-2.02-0.94-2.95-2.96-2.95H225.29z"/>
			</g>
			<g>
				<path class="st0" d="M295.45,104.57c1.93,0,3.18,0.79,3.98,2.62l15.47,37.87c0.46,1.02,1.36,0.8,1.36-0.34v-36.73
					c0-2.28,1.26-3.41,3.41-3.41h12.73c2.28,0,3.42,1.14,3.42,3.41v72.79c0,2.16-1.14,3.41-3.42,3.41h-16.72
					c-1.93,0-3.18-0.8-3.98-2.62l-15.46-37.87c-0.46-1.02-1.37-0.79-1.37,0.34v36.74c0,2.16-1.13,3.41-3.41,3.41h-12.75
					c-2.16,0-3.4-1.25-3.4-3.41v-72.79c0-2.28,1.24-3.41,3.4-3.41H295.45z"/>
				<path class="st0" d="M332.41,184.64h-16.72c-2.13,0-3.53-0.92-4.4-2.89l-15.47-37.89c-0.13-0.3-0.28-0.36-0.31-0.36
					c-0.03,0-0.17,0.14-0.17,0.54v36.74c0,2.45-1.41,3.87-3.87,3.87h-12.75c-2.42,0-3.87-1.44-3.87-3.87v-72.79
					c0-2.46,1.41-3.87,3.87-3.87h16.72c2.14,0,3.53,0.92,4.4,2.89l15.48,37.88c0.12,0.27,0.26,0.37,0.31,0.37
					c0.09-0.1,0.16-0.24,0.16-0.54v-36.73c0-2.46,1.41-3.87,3.87-3.87h12.73c2.54,0,3.88,1.34,3.88,3.87v72.79
					C336.28,183.23,334.87,184.64,332.41,184.64z M295.5,142.58c0.47,0,0.9,0.34,1.16,0.92l15.47,37.89
					c0.71,1.63,1.78,2.33,3.55,2.33h16.72c1.96,0,2.96-0.99,2.96-2.95v-72.79c0-2.02-0.93-2.95-2.96-2.95h-12.73
					c-1.96,0-2.96,0.99-2.96,2.95v36.73c0,0.4-0.09,0.74-0.27,1c-0.19,0.29-0.49,0.46-0.81,0.46l0,0c-0.47,0-0.9-0.34-1.16-0.92
					l-15.47-37.89c-0.72-1.63-1.78-2.33-3.56-2.33h-16.72c-1.95,0-2.94,0.99-2.94,2.95v72.79c0,1.9,1.04,2.95,2.94,2.95h12.75
					c1.96,0,2.95-0.99,2.95-2.95v-36.74C294.42,143.03,294.98,142.58,295.5,142.58z"/>
			</g>
			<g>
				<path class="st0" d="M388.12,127.54c0-2.27-1.14-3.41-3.41-3.41h-15.93c-2.17,0-3.41-1.25-3.41-3.41v-12.74
					c0-2.28,1.24-3.41,3.41-3.41h58.23c2.27,0,3.41,1.14,3.41,3.41v12.74c0,2.16-1.14,3.41-3.41,3.41h-15.93
					c-2.15,0-3.41,1.14-3.41,3.41v53.23c0,2.16-1.14,3.41-3.41,3.41h-12.73c-2.17,0-3.41-1.25-3.41-3.41V127.54z"/>
				<path class="st0" d="M404.27,184.64h-12.73c-2.43,0-3.88-1.44-3.88-3.87v-53.23c0-2.01-0.93-2.95-2.94-2.95h-15.93
					c-2.42,0-3.87-1.45-3.87-3.88v-12.74c0-2.46,1.41-3.87,3.87-3.87h58.23c2.54,0,3.87,1.34,3.87,3.87v12.74
					c0,2.46-1.41,3.88-3.87,3.88h-15.93c-1.95,0-2.95,0.99-2.95,2.95v53.23C408.14,183.23,406.74,184.64,404.27,184.64z
					 M368.79,105.03c-1.96,0-2.96,0.99-2.96,2.95v12.74c0,1.91,1.05,2.96,2.96,2.96h15.93c2.53,0,3.87,1.34,3.87,3.87v53.23
					c0,1.9,1.05,2.95,2.96,2.95h12.73c1.96,0,2.96-0.99,2.96-2.95v-53.23c0-2.46,1.41-3.87,3.87-3.87h15.93c1.96,0,2.95-1,2.95-2.96
					v-12.74c0-2.02-0.93-2.95-2.95-2.95H368.79z"/>
			</g>
			<g>
				<path class="st0" d="M475.91,104.57c2.27,0,3.41,1.14,3.41,3.41v72.79c0,2.16-1.14,3.41-3.41,3.41h-12.51
					c-2.16,0-3.41-1.25-3.41-3.41v-72.79c0-2.28,1.25-3.41,3.41-3.41H475.91z"/>
				<path class="st0" d="M475.91,184.64h-12.51c-2.42,0-3.87-1.44-3.87-3.87v-72.79c0-2.46,1.41-3.87,3.87-3.87h12.51
					c2.54,0,3.87,1.34,3.87,3.87v72.79C479.78,183.23,478.37,184.64,475.91,184.64z M463.39,105.03c-1.96,0-2.96,0.99-2.96,2.95
					v72.79c0,1.9,1.05,2.95,2.96,2.95h12.51c1.96,0,2.95-0.99,2.95-2.95v-72.79c0-2.02-0.94-2.95-2.95-2.95H463.39z"/>
			</g>
			<g>
				<path class="st0" d="M551.75,104.57c1.95,0,3.19,0.79,3.98,2.62l15.47,37.87c0.45,1.02,1.36,0.8,1.36-0.34v-36.73
					c0-2.28,1.25-3.41,3.41-3.41h12.75c2.27,0,3.41,1.14,3.41,3.41v72.79c0,2.16-1.14,3.41-3.41,3.41H572
					c-1.93,0-3.19-0.8-3.98-2.62l-15.46-37.87c-0.45-1.02-1.37-0.79-1.37,0.34v36.74c0,2.16-1.14,3.41-3.41,3.41h-12.73
					c-2.16,0-3.41-1.25-3.41-3.41v-72.79c0-2.28,1.26-3.41,3.41-3.41H551.75z"/>
				<path class="st0" d="M588.72,184.64H572c-2.15,0-3.55-0.92-4.4-2.89l-15.48-37.89c-0.12-0.26-0.26-0.36-0.31-0.36
					c-0.04,0-0.17,0.14-0.17,0.54v36.74c0,2.45-1.42,3.87-3.88,3.87h-12.73c-2.43,0-3.88-1.44-3.88-3.87v-72.79
					c0-2.46,1.42-3.87,3.88-3.87h16.71c2.15,0,3.55,0.92,4.41,2.89l15.48,37.88c0.12,0.27,0.26,0.37,0.31,0.37
					c0.09-0.1,0.17-0.24,0.17-0.54v-36.73c0-2.46,1.41-3.87,3.87-3.87h12.75c2.53,0,3.87,1.34,3.87,3.87v72.79
					C592.58,183.23,591.18,184.64,588.72,184.64z M551.81,142.58c0.46,0,0.9,0.34,1.15,0.93l15.47,37.88
					c0.72,1.63,1.78,2.33,3.56,2.33h16.72c1.95,0,2.94-0.99,2.94-2.95v-72.79c0-2.02-0.93-2.95-2.94-2.95h-12.75
					c-1.95,0-2.94,0.99-2.94,2.95v36.73c0,0.4-0.09,0.74-0.27,1c-0.2,0.29-0.5,0.45-0.82,0.45l0,0c-0.46,0-0.9-0.34-1.15-0.93
					l-15.47-37.88c-0.72-1.63-1.78-2.33-3.56-2.33h-16.71c-1.96,0-2.96,0.99-2.96,2.95v72.79c0,1.9,1.05,2.95,2.96,2.95h12.73
					c1.96,0,2.96-0.99,2.96-2.95v-36.74C550.73,143.03,551.29,142.58,551.81,142.58z"/>
			</g>
		</g>
	</g>
	<g>
		<g>
			<path class="st0" d="M517.62,217.35v4.04c0,4.87-2.44,7.66-7.14,7.66c-4.69,0-7.14-2.79-7.14-7.66v-15.83
				c0-4.87,2.44-7.65,7.14-7.65c4.7,0,7.14,2.78,7.14,7.65v2.96h-4.52v-3.26c0-2.17-0.95-3-2.47-3c-1.53,0-2.49,0.83-2.49,3v16.44
				c0,2.17,0.95,2.96,2.49,2.96c1.52,0,2.47-0.79,2.47-2.96v-4.34H517.62z"/>
		</g>
		<g>
			<path class="st0" d="M544.73,228.7h-4.83l-0.83-5.52h-5.87l-0.82,5.52h-4.39l4.88-30.44h7L544.73,228.7z M533.81,219.05h4.61
				l-2.3-15.4L533.81,219.05z"/>
		</g>
		<g>
			<path class="st0" d="M560.44,211.78h6.16v4.36h-6.16v12.56h-4.79v-30.44h12.66v4.35h-7.87V211.78z"/>
		</g>
		<g>
			<path class="st0" d="M584.1,211.09h6.58v4.34h-6.58v8.92h8.27v4.34h-13.05v-30.44h13.05v4.35h-8.27V211.09z M590.93,191.81
				l-4.44,4.83h-3.22l2.96-4.83H590.93z"/>
		</g>
	</g>
</g>
</svg>
