<svg xmlns="http://www.w3.org/2000/svg" xmlns:xlink="http://www.w3.org/1999/xlink" id="Capa_1" x="0px" y="0px" width="214px" height="26px" viewBox="0 0 214 26" style="enable-background:new 0 0 214 26;" xml:space="preserve"> <style type="text/css"> .st0{fill:#001522;} </style> <g> <g> <path class="st0" d="M30.4,12.3c0,3.7,0,7.2,0,10.8c0,0.4-0.1,0.6-0.6,0.6c-1.3,0-2.7,0-4,0c-0.4,0-0.5-0.1-0.5-0.5 c0-7,0-14.1,0-21.1c0-0.2-0.1-0.4,0.2-0.5c0.3-0.1,0.5-0.1,0.7,0.1c1.5,1.4,3,2.7,4.5,4.1c2.6,2.4,5.3,4.8,7.9,7.2 c0.1,0.1,0.1,0.1,0.3,0.2c0-0.3,0-0.4,0-0.6c0-3.3,0-6.7,0-10c0-0.5,0.2-0.6,0.6-0.6c1.3,0,2.7,0,4,0c0.4,0,0.4,0.1,0.4,0.5 c0,7.1,0,14.1,0,21.2c0,0.2,0.1,0.4-0.1,0.5c-0.3,0.1-0.4,0-0.6-0.2c-2.1-1.9-4.3-3.9-6.4-5.8c-2-1.8-4.1-3.7-6.1-5.5 C30.6,12.4,30.5,12.4,30.4,12.3z"></path> <path class="st0" d="M101.3,9.3c0-2.3,0-4.6,0-6.9c0-0.4,0.1-0.5,0.5-0.5c1.4,0,2.7,0,4.1,0c0.4,0,0.5,0.1,0.5,0.5 c0,3.9,0,7.9,0,11.8c0,0.9,0.1,1.9,0.4,2.8c0.6,1.5,1.7,2.2,3.3,2.4c0.7,0.1,1.5,0,2.1-0.2c1.5-0.6,2.1-1.8,2.4-3.3 c0.1-0.5,0.1-1,0.1-1.5c0-4,0-7.9,0-11.9c0-0.4,0.1-0.5,0.5-0.5c1.4,0,2.7,0,4.1,0c0.3,0,0.5,0,0.5,0.4c0,4.5,0.1,8.9-0.1,13.4 c-0.1,4.6-2.8,7.6-7.4,8.2c-2.1,0.3-4.2,0.2-6.2-0.6c-2.5-1-3.9-2.9-4.5-5.5c-0.3-1.4-0.3-2.9-0.3-4.3 C101.3,12,101.3,10.6,101.3,9.3z"></path> <path class="st0" d="M168.6,7.7c-1.3-0.8-2.6-1.4-4.1-1.7c-0.7-0.1-1.4-0.1-2.1,0.1c-1.3,0.5-1.6,2.1-0.5,3 c0.6,0.5,1.4,0.8,2.1,1.2c1.1,0.5,2.2,1,3.3,1.6c3.1,1.8,3.6,5.2,2.5,8c-1,2.4-2.9,3.5-5.4,3.9c-3.1,0.5-6-0.3-8.7-1.8 c-0.3-0.2-0.4-0.3-0.3-0.7c0.4-1.3,0.8-2.7,1.3-4.1c1.2,0.8,2.5,1.4,3.9,1.8c0.9,0.2,1.8,0.3,2.8,0.3c0.8-0.1,1.5-0.4,1.8-1.2 c0.3-0.8,0-1.7-0.7-2.3c-0.9-0.7-1.9-1.1-2.9-1.5c-1.3-0.5-2.5-1.1-3.5-2.1c-3.2-3-2.2-8.2,2-9.9c2.4-1,4.9-0.9,7.4-0.2 c0.8,0.2,1.5,0.5,2.2,0.9c0.2,0.1,0.3,0.2,0.2,0.5C169.4,4.9,169,6.3,168.6,7.7z"></path> <path class="st0" d="M57.1,1.9c2.8,0,5.7,0,8.5,0c0.4,0,0.6,0.1,0.5,0.5c0,1.2,0,2.4,0,3.6c0,0.4-0.1,0.5-0.5,0.5 c-1.9,0-3.7,0-5.6,0c-0.4,0-0.5,0.1-0.5,0.5c0,5.3,0,10.7,0,16c0,0.5-0.1,0.6-0.6,0.6c-1.3,0-2.7,0-4,0c-0.4,0-0.5-0.1-0.5-0.5 c0-5.3,0-10.7,0-16c0-0.6-0.2-0.7-0.7-0.7c-1.8,0-3.6,0-5.4,0c-0.3,0-0.5-0.1-0.5-0.4c0-1.2,0-2.5,0-3.7c0-0.4,0.1-0.5,0.5-0.5 C51.4,1.9,54.2,1.9,57.1,1.9z"></path> <path class="st0" d="M182.6,1.9c2.8,0,5.7,0,8.5,0c0.4,0,0.6,0.1,0.5,0.5c0,1.2,0,2.4,0,3.6c0,0.4-0.1,0.5-0.5,0.5 c-1.9,0-3.7,0-5.6,0c-0.4,0-0.5,0.1-0.5,0.5c0,5.3,0,10.7,0,16c0,0.5-0.1,0.6-0.6,0.6c-1.3,0-2.7,0-4,0c-0.4,0-0.5-0.1-0.5-0.5 c0-5.3,0-10.7,0-16c0-0.6-0.2-0.7-0.7-0.7c-1.8,0-3.6,0-5.4,0c-0.3,0-0.5-0.1-0.5-0.4c0-1.2,0-2.5,0-3.7c0-0.4,0.1-0.5,0.5-0.5 C176.9,1.9,179.7,1.9,182.6,1.9z"></path> <path class="st0" d="M88.5,1.9c2.9,0,5.7,0,8.6,0c0.4,0,0.5,0.1,0.5,0.5c0,1.2,0,2.4,0,3.7c0,0.4-0.1,0.5-0.5,0.5 c-1.9,0-3.7,0-5.6,0c-0.4,0-0.5,0.1-0.5,0.5c0,5.4,0,10.7,0,16.1c0,0.5-0.1,0.6-0.6,0.6c-1.3,0-2.7,0-4,0c-0.4,0-0.5-0.1-0.5-0.5 c0-5.3,0-10.7,0-16c0-0.5-0.2-0.6-0.6-0.6c-1.8,0-3.6,0-5.5,0c-0.4,0-0.5-0.1-0.5-0.5c0-1.2,0-2.4,0-3.7c0-0.4,0.1-0.5,0.5-0.5 C82.8,1.9,85.6,1.9,88.5,1.9z"></path> <path class="st0" d="M75.3,12.8c0,3.5,0,6.9,0,10.4c0,0.4-0.1,0.5-0.5,0.5c-1.4,0-2.7,0-4.1,0c-0.3,0-0.5,0-0.5-0.4 c0-7,0-13.9,0-20.9c0-0.3,0.1-0.4,0.4-0.4c1.4,0,2.8,0,4.2,0c0.4,0,0.4,0.1,0.4,0.5C75.3,5.8,75.3,9.3,75.3,12.8z"></path> <path class="st0" d="M151.1,12.8c0,3.4,0,6.9,0,10.3c0,0.4-0.1,0.5-0.5,0.5c-1.3,0-2.7,0-4,0c-0.4,0-0.5-0.1-0.5-0.5 c0-6.9,0-13.9,0-20.8c0-0.4,0.1-0.5,0.5-0.5c1.4,0,2.8,0,4.1,0c0.4,0,0.5,0.1,0.5,0.5C151.1,5.9,151.1,9.3,151.1,12.8z"></path> <g> <path class="st0" d="M142.2,23.3c-1.6-2.6-3.1-5.1-4.7-7.7c-0.1-0.2-0.3-0.4,0.1-0.6c2.1-1.4,3.3-3.3,3.4-5.8 c0.1-2.8-1-5.1-3.7-6.3c-1.9-0.9-3.9-1.2-5.9-1.2c-1.9,0-3.9,0.2-5.8,0.3c-0.4,0-0.4,0.2-0.4,0.5c0,6.9,0,13.7,0,20.6 c0,0.4,0.1,0.5,0.5,0.5c1.3,0,2.7,0,4,0c0.4,0,0.5-0.1,0.5-0.5c0-2.1,0-4.1,0-6.2c0-0.3,0.1-0.4,0.4-0.4c0.6,0,1.2,0.1,1.9,0 c0.4,0,0.5,0.1,0.7,0.4c1.1,2.1,2.2,4.2,3.3,6.3c0.1,0.2,0.2,0.4,0.5,0.4c1.8,0,3.6,0,5.4,0C142.2,23.5,142.2,23.4,142.2,23.3z M134.1,11.9c-1.2,0.6-2.5,0.6-3.7,0.5c-0.3,0-0.2-0.2-0.2-0.4c0-0.9,0-1.8,0-2.7c0-0.9,0-1.7,0-2.6c0-0.3,0-0.4,0.4-0.4 c1.1-0.1,2.2-0.2,3.2,0.2c1.2,0.4,1.9,1.2,1.9,2.5C135.7,10.3,135.3,11.3,134.1,11.9z"></path> </g> <path class="st0" d="M22.2,23.2c-3.3-7-6.5-14-9.8-21c-0.1-0.2-0.1-0.5-0.6-0.6c-0.4,0-0.5,0.3-0.6,0.5c-3.3,7-6.5,14-9.8,21 c-0.1,0.1-0.2,0.2-0.1,0.4c1.6,0,3.1,0,4.7,0c0.3,0,0.4-0.1,0.5-0.4C6.9,22,7.4,21,7.8,19.9c0.1-0.3,0.2-0.4,0.6-0.4 c2.3,0,4.5,0,6.8,0c0.3,0,0.4,0.1,0.5,0.3c0.4,1.1,0.9,2.1,1.3,3.2c0.1,0.2,0.1,0.4,0.4,0.4c1.6,0,3.3,0,5,0 C22.3,23.4,22.2,23.3,22.2,23.2z M13.5,15.8c-1.2,0-2.4,0-3.5,0c-0.2,0-0.4,0-0.2-0.3c0.7-1.6,1.3-3.2,2.1-4.9 c0.7,1.7,1.3,3.3,2,4.8C13.8,15.7,13.9,15.8,13.5,15.8z"></path> <g> <path class="st0" d="M212.5,23.2c-3.3-7-6.5-14-9.8-21c-0.1-0.2-0.1-0.5-0.6-0.6c-0.4,0-0.5,0.3-0.6,0.5c-3.3,7-6.5,14-9.8,21 c-0.1,0.1-0.2,0.2-0.1,0.4c1.6,0,3.1,0,4.7,0c0.3,0,0.4-0.1,0.5-0.4c0.4-1.1,0.9-2.1,1.3-3.2c0.1-0.3,0.2-0.4,0.6-0.4 c2.3,0,4.5,0,6.8,0c0.3,0,0.4,0.1,0.5,0.3c0.4,1.1,0.9,2.1,1.3,3.2c0.1,0.2,0.1,0.4,0.4,0.4c1.6,0,3.3,0,5,0 C212.6,23.4,212.6,23.3,212.5,23.2z M203.9,15.8c-1.2,0-2.4,0-3.5,0c-0.2,0-0.4,0-0.2-0.3c0.7-1.6,1.3-3.2,2.1-4.9 c0.7,1.7,1.3,3.3,2,4.8C204.2,15.7,204.2,15.8,203.9,15.8z"></path> </g> </g> </g> </svg>