<?xml version="1.0" encoding="UTF-8"?>
<svg width="28px" height="28px" viewBox="0 0 28 28" version="1.1" xmlns="http://www.w3.org/2000/svg" xmlns:xlink="http://www.w3.org/1999/xlink">
    <title>ICON_CLOSE_ACTIVE</title>
    <defs>
        <path d="M17.2991959,14.0002917 L27.3157785,3.98350034 C28.2280738,3.07118602 28.2280738,1.59655007 27.3157785,0.684235745 C26.4034832,-0.228078582 24.928878,-0.228078582 24.0165826,0.684235745 L14,10.7010271 L3.98341736,0.684235745 C3.07112204,-0.228078582 1.59651681,-0.228078582 0.684221491,0.684235745 C-0.22807383,1.59655007 -0.22807383,3.07118602 0.684221491,3.98350034 L10.7008041,14.0002917 L0.684221491,24.017083 C-0.22807383,24.9293973 -0.22807383,26.4040332 0.684221491,27.3163476 C1.13920253,27.7713381 1.73651098,28 2.33381942,28 C2.93112787,28 3.52843632,27.7713381 3.98341736,27.3163476 L14,17.2995563 L24.0165826,27.3163476 C24.4715637,27.7713381 25.0688721,28 25.6661806,28 C26.263489,28 26.8607975,27.7713381 27.3157785,27.3163476 C28.2280738,26.4040332 28.2280738,24.9293973 27.3157785,24.017083 L17.2991959,14.0002917 Z" id="path-1"></path>
    </defs>
    <g id="ICON_CLOSE_ACTIVE" stroke="none" stroke-width="1" fill="none" fill-rule="evenodd">
        <mask id="mask-2" fill="white">
            <use xlink:href="#path-1"></use>
        </mask>
        <use id="🎨-Icon-Сolor" fill="#FFFFFF" fill-rule="nonzero" xlink:href="#path-1"></use>
    </g>
</svg>