<?xml version="1.0" encoding="UTF-8"?>
<svg width="35px" height="35px" viewBox="0 0 35 35" version="1.1" xmlns="http://www.w3.org/2000/svg" xmlns:xlink="http://www.w3.org/1999/xlink">
    <title>ICON_FB_HOVER</title>
    <g id="ICON_FB_HOVER" stroke="none" stroke-width="1" fill="none" fill-rule="evenodd">
        <g id="Facebook">
            <circle id="Red-03" fill="#705844" cx="17.5" cy="17.5" r="17.5"></circle>
            <g transform="translate(13.000000, 8.000000)" fill="#FFFFFF" fill-rule="nonzero">
                <path d="M2.0173507,3.87336322 C2.0173507,4.37737148 2.0173507,6.62697158 2.0173507,6.62697158 L0,6.62697158 L0,9.99409456 L2.0173507,9.99409456 L2.0173507,20 L6.16141728,20 L6.16141728,9.99437356 L8.94227838,9.99437356 C8.94227838,9.99437356 9.20271819,8.37986385 9.32896245,6.61455621 C8.96701574,6.61455621 6.17708738,6.61455621 6.17708738,6.61455621 C6.17708738,6.61455621 6.17708738,4.65567108 6.17708738,4.31231865 C6.17708738,3.96822223 6.62891628,3.50536604 7.07549081,3.50536604 C7.52122837,3.50536604 8.46199221,3.50536604 9.33333333,3.50536604 C9.33333333,3.04692731 9.33333333,1.46292129 9.33333333,0 C8.1701192,0 6.84676318,0 6.26343566,0 C1.91491383,-0.000232497582 2.0173507,3.37023845 2.0173507,3.87336322 Z"></path>
            </g>
        </g>
    </g>
</svg>