<?xml version="1.0" encoding="UTF-8"?>
<svg width="37px" height="25px" viewBox="0 0 37 25" version="1.1" xmlns="http://www.w3.org/2000/svg" xmlns:xlink="http://www.w3.org/1999/xlink">
    <title>Icon_burger_white</title>
    <defs>
        <path d="M35.0492778,20.8333333 C36.1222778,20.8333333 37,21.7229167 37,22.8104167 L37,22.8104167 L37,23.0229167 C37,24.1104167 36.1222778,25 35.0492778,25 L35.0492778,25 L1.94866667,25 C0.875666667,25 0,24.1104167 0,23.0229167 L0,23.0229167 L0,22.8104167 C0,21.7229167 0.875666667,20.8333333 1.94866667,20.8333333 L1.94866667,20.8333333 Z M35.0492778,10.4166667 C36.1222778,10.4166667 37,11.30625 37,12.39375 L37,12.39375 L37,12.60625 C37,13.69375 36.1222778,14.5833333 35.0492778,14.5833333 L35.0492778,14.5833333 L1.94866667,14.5833333 C0.875666667,14.5833333 0,13.69375 0,12.60625 L0,12.60625 L0,12.39375 C0,11.30625 0.875666667,10.4166667 1.94866667,10.4166667 L1.94866667,10.4166667 Z M35.0492778,0 C36.1222778,0 37,0.889583333 37,1.97708333 L37,1.97708333 L37,2.18958333 C37,3.27708333 36.1222778,4.16666667 35.0492778,4.16666667 L35.0492778,4.16666667 L1.94866667,4.16666667 C0.875666667,4.16666667 0,3.27708333 0,2.18958333 L0,2.18958333 L0,1.97708333 C0,0.889583333 0.875666667,0 1.94866667,0 L1.94866667,0 Z" id="path-1"></path>
    </defs>
    <g id="Icon_burger_white" stroke="none" stroke-width="1" fill="none" fill-rule="evenodd">
        <mask id="mask-2" fill="white">
            <use xlink:href="#path-1"></use>
        </mask>
        <use id="🎨-Icon-Сolor" fill="#FFFFFF" fill-rule="nonzero" xlink:href="#path-1"></use>
    </g>
</svg>