<?xml version="1.0" encoding="UTF-8"?>
<svg width="35px" height="35px" viewBox="0 0 35 35" version="1.1" xmlns="http://www.w3.org/2000/svg" xmlns:xlink="http://www.w3.org/1999/xlink">
    <title>ICON_IG_HOVER</title>
    <g id="ICON_IG_HOVER" stroke="none" stroke-width="1" fill="none" fill-rule="evenodd">
        <g id="instagram">
            <circle id="Red-01" fill="#705844" cx="17.5" cy="17.5" r="17.5"></circle>
            <path d="M21.4375,7 L13.5625,7 C9.9386875,7 7,9.9386875 7,13.5625 L7,21.4375 C7,25.0613125 9.9386875,28 13.5625,28 L21.4375,28 C25.0613125,28 28,25.0613125 28,21.4375 L28,13.5625 C28,9.9386875 25.0613125,7 21.4375,7 Z M26.03125,21.4375 C26.03125,23.970625 23.970625,26.03125 21.4375,26.03125 L13.5625,26.03125 C11.029375,26.03125 8.96875,23.970625 8.96875,21.4375 L8.96875,13.5625 C8.96875,11.029375 11.029375,8.96875 13.5625,8.96875 L21.4375,8.96875 C23.970625,8.96875 26.03125,11.029375 26.03125,13.5625 L26.03125,21.4375 Z" id="Shape" fill="#FFFFFF" fill-rule="nonzero"></path>
            <path d="M17.5,12 C14.462625,12 12,14.462625 12,17.5 C12,20.537375 14.462625,23 17.5,23 C20.537375,23 23,20.537375 23,17.5 C23,14.462625 20.537375,12 17.5,12 Z M17.5,20.9375 C15.60525,20.9375 14.0625,19.39475 14.0625,17.5 C14.0625,15.603875 15.60525,14.0625 17.5,14.0625 C19.39475,14.0625 20.9375,15.603875 20.9375,17.5 C20.9375,19.39475 19.39475,20.9375 17.5,20.9375 Z" id="Shape" fill="#FFFFFF" fill-rule="nonzero"></path>
            <circle id="Oval" fill="#FFFFFF" fill-rule="nonzero" cx="24" cy="13" r="1"></circle>
        </g>
    </g>
</svg>