<svg id="Capa_1" data-name="Capa 1" xmlns="http://www.w3.org/2000/svg" viewBox="0 0 792 412.66"><defs><style>.cls-1{fill:#3c3c3b;}</style></defs><path class="cls-1" d="M108.25,254.3H59.58c3.8-4.37,4-10.94,4-11.86v-49.5c0-.91-.19-7.48-4-11.85H80.33a24.36,24.36,0,0,0-3.88,12v54.19H92.2a7,7,0,0,0,2.65-.61,16.69,16.69,0,0,0,1.64-.92l6.44-5Z"/><path class="cls-1" d="M184.88,254.32H160.24a11.15,11.15,0,0,0,2.93-7,7.79,7.79,0,0,0-.27-2A76.89,76.89,0,0,0,158.4,233H135.6l-1.84,6.65c-1.08,3.79-1.91,6.61-1.91,9.09a9.06,9.06,0,0,0,1.91,5.63H115.25a36.79,36.79,0,0,0,9.3-14.72l15.65-45.91c1.57-4.22,2.22-6.85,2.22-9.27a18.37,18.37,0,0,0-.69-4.64h11.66l18.71,51.33C175.37,239.19,178.64,249.62,184.88,254.32Zm-38.14-52.25-8.69,23.82,17.79.11Z"/><path class="cls-1" d="M205.13,181.08h30.36s19.53,0,19.53,15.44c0,15.13-10,19.63-16.36,21,3.89,6.65,18.41,30.88,27.2,36.81a61,61,0,0,1-9.21.79c-3.2,0-6.49-.36-8.48-1.61-4.29-2.66-23.82-30.88-25-35.38v24.24s0,6.85,3.89,12H205.13c3.78-4.4,4-10.94,4-11.86V192.94C209.11,192,208.91,185.48,205.13,181.08Zm18,32.82h4.5s14.11-.2,14.11-15c0-10.63-14.11-10.63-14.11-10.63h-4.5V213.9Z"/><path class="cls-1" d="M322.69,254.32H272.9c3.8-4.37,4-10.94,4-11.85V193c0-.92-.18-7.49-4-11.86h49.79l-5.32,13.6-6.44-5a17.17,17.17,0,0,0-1.63-.92,7.09,7.09,0,0,0-2.66-.61H290.89v25.76h10.85c.91,0,7.48-.19,11.85-4v14.93a24.36,24.36,0,0,0-12-3.88H290.89v26.28h15.75a7.21,7.21,0,0,0,2.66-.62,14.86,14.86,0,0,0,1.63-.92l6.44-5Z"/><path class="cls-1" d="M371.36,247.64c3.88,0,7.87-.52,11.76-.72-5.83,6.24-14,8.9-23,8.9-17.69,0-31.9-9.92-31.9-37.94s14.21-38.14,31.9-38.14c8.79,0,16.87,2.66,22.6,8.8l-11.25,13.8c-4-7.36-10.63-12-25.46-12h-.09c-4.65,0-6.66,4.8-6.66,12.05A75,75,0,0,0,342.12,221C345.9,235.06,352.54,247.64,371.36,247.64Z"/><path class="cls-1" d="M447.05,181.11h33.23s19.53,0,19.53,21.68c0,25.15-21.17,25.25-21.17,25.25H465v14.32s0,6.85,3.89,12H447.05c3.8-4.37,4-10.94,4-11.86V193C451,192.05,450.85,185.48,447.05,181.11Zm18,42.55c9.66-.27,21.47-2.53,21.47-20.87,0-14.52-14.1-14.57-14.1-14.57H465v35.44Z"/><path class="cls-1" d="M590.72,181.11a24.36,24.36,0,0,0-3.88,12v49.29a24.36,24.36,0,0,0,3.88,12H570c3.8-4.37,4-10.94,4-11.86V193.07c0-1-.14-7.54-4-12Z"/><path class="cls-1" d="M629.64,179.74c-17.69,0-31.9,10.13-31.9,38.14s14.21,37.94,31.9,37.94,31.9-9.92,31.9-37.94C661.54,190.28,647.33,179.74,629.64,179.74Zm11.25,67.9c-18.82,0-25.46-12.58-29.25-26.69a75,75,0,0,1-2.86-18.52c0-7.25,2-12.05,6.66-12.05h.09c23.52,0,26.58,11.76,30.78,27.4,1.62,6.06,3.05,12.76,3.05,18.27C649.36,242.71,647.27,247.64,640.89,247.64Z"/><path class="cls-1" d="M651.52,156.84A54.27,54.27,0,0,1,630,171.77l7.67-14.93Z"/><path class="cls-1" d="M684.67,181.11l35.17,50.51V195.83c0-6.85-1.12-10.33-3.68-14.72h16.26c-2.56,4.39-3.68,8-3.68,14.11v60.53s-5.11-.11-8.49-1.84c-3.17-1.64-6.16-5.83-6.16-5.83l-31.36-43.66v35.17c0,6.85,1.22,10.33,3.78,14.73H670.25c2.56-4.4,3.68-7.88,3.68-14.73V195.83c0-6.85-1.12-10.33-3.68-14.72Z"/><path class="cls-1" d="M439.59,254.32h-49.8c3.8-4.37,4-10.94,4-11.85V193c0-.92-.19-7.49-4-11.86h49.8l-5.32,13.6-6.44-5a16.69,16.69,0,0,0-1.64-.92,7.09,7.09,0,0,0-2.66-.61H407.79v25.76h10.84c.92,0,7.49-.19,11.86-4v14.93a24.4,24.4,0,0,0-12-3.88H407.79v26.28h15.74a7.21,7.21,0,0,0,2.66-.62,14.51,14.51,0,0,0,1.64-.92l6.44-5Z"/><path class="cls-1" d="M551.35,247.64c3.88,0,7.87-.52,11.76-.72-5.83,6.24-14,8.9-23,8.9-17.69,0-31.9-9.92-31.9-37.94s14.21-38.14,31.9-38.14c8.79,0,16.87,2.66,22.6,8.8l-11.25,13.8c-4-7.36-10.63-12-25.46-12h-.09c-4.65,0-6.66,4.8-6.66,12.05A75,75,0,0,0,522.1,221C525.89,235.06,532.53,247.64,551.35,247.64Z"/></svg>