<?xml version="1.0" encoding="UTF-8"?>
<svg width="521px" height="113px" viewBox="0 0 521 113" version="1.1" xmlns="http://www.w3.org/2000/svg" xmlns:xlink="http://www.w3.org/1999/xlink">
    <title>MUCHAS_IGP_02</title>
    <defs>
        <polygon id="path-1" points="0 0 148.077097 0 148.077097 75.1573307 0 75.1573307"></polygon>
        <polygon id="path-3" points="0 0 148.077097 0 148.077097 75.1573307 0 75.1573307"></polygon>
    </defs>
    <g id="Page-1" stroke="none" stroke-width="1" fill="none" fill-rule="evenodd">
        <g id="7.0-MUCHAS" transform="translate(-459.000000, -306.000000)">
            <g id="Group" transform="translate(459.000000, 306.000000)">
                <path d="M420.474823,16.41804 C421.155655,17.4946069 421.222001,18.5996293 420.677809,19.7323167 C420.204701,20.7203553 419.342208,21.6087997 418.08954,22.400021 C417.25864,22.926448 416.223174,23.3856883 414.980774,23.7785325 L414.293623,22.6901091 C415.448352,22.4182009 416.47592,21.9961108 417.376324,21.427791 C418.020035,21.0199287 418.431536,20.6349888 418.613986,20.2761332 C418.879369,19.7631435 418.797226,19.1663682 418.369139,18.4881785 C417.991601,17.8921936 417.177288,17.6123811 415.924619,17.6511122 C413.611211,17.7214605 412.444634,17.7546586 412.425678,17.7499161 C411.063223,17.6131715 410.058561,17.0353665 409.41564,16.0172916 C408.861181,15.1391228 408.794835,14.2190613 409.218183,13.2547356 C409.639952,12.2912003 410.442418,11.4351637 411.624002,10.6866256 C412.23138,10.3032666 413.157059,9.84876889 414.39788,9.32550364 L414.99657,10.2740207 C413.811037,10.7293089 412.884568,11.1672076 412.218743,11.5900881 C411.177748,12.2485171 410.956596,13.0515949 411.554497,14.0001119 C411.924926,14.5858212 412.728972,14.8466634 413.966634,14.7842194 C416.157619,14.6767208 417.313138,14.6261332 417.431612,14.6324566 C418.787748,14.7581351 419.802678,15.3533296 420.474823,16.41804" id="Fill-1" fill="#80583b"></path>
                <path d="M432.326203,8.68446419 C431.145409,5.00421796 429.778216,3.41545187 428.223833,3.91421377 C426.656023,4.41771824 426.461725,6.50840795 427.640939,10.1886542 C428.79014,13.7748391 430.149435,15.3169698 431.718825,14.8134653 C433.272418,14.3147034 433.475404,12.2714396 432.326203,8.68446419 Z M435.073228,7.80234331 C435.631637,9.5420817 435.697982,11.1355904 435.275424,12.580498 C434.792049,14.2490976 433.721041,15.3477966 432.060821,15.8821279 C430.386384,16.4196209 428.869123,16.1508158 427.507458,15.0743075 C426.322715,14.1463416 425.450744,12.8113039 424.893125,11.0715655 C424.416068,9.58081281 424.387634,8.09164102 424.812562,6.60246922 C425.305415,4.82953274 426.362206,3.68261752 427.982145,3.16172356 C429.643155,2.62897314 431.151728,2.89297706 432.510233,3.9561066 C433.686289,4.85798825 434.540883,6.13927672 435.073228,7.80234331 L435.073228,7.80234331 Z" id="Fill-2" fill="#80583b"></path>
                <path d="M456.729543,12.9433058 L453.864834,12.9614857 L453.800068,2.84397034 L450.294018,12.9836178 L448.654334,12.9954743 L443.849805,1.91047146 L443.92168,13.0255106 L442.924916,13.0326245 L442.855411,2.31201035 C442.851462,1.63382065 442.747204,1.17378987 442.545008,0.93270845 C442.343602,0.691627029 441.958955,0.572271964 441.391858,0.57701455 C441.239421,0.563577224 441.162808,0.481372412 441.161222,0.328028819 C441.160438,0.189703414 441.235472,0.113822048 441.388699,0.0988038612 L445.934163,0.0695579183 L450.254527,9.99262731 L453.69897,0.0197607722 L456.645821,0 L456.729543,12.9433058" id="Fill-3" fill="#80583b"></path>
                <path d="M471.678632,10.2013011 C472.824673,6.51077924 472.618528,4.42404169 471.059406,3.93871712 C469.486067,3.45023083 468.127562,5.05006295 466.98073,8.73979435 C465.863123,12.3386262 466.090593,14.3810996 467.663932,14.8703763 C469.223054,15.3557009 470.561024,13.8001329 471.678632,10.2013011 Z M474.435134,11.0589186 C473.893312,12.80419 473.032398,14.1471321 471.857133,15.0869544 C470.504946,16.1753777 468.995584,16.4591424 467.331414,15.9414102 C465.652238,15.4205162 464.564644,14.3265599 464.067052,12.6634933 C463.629487,11.2233282 463.683195,9.6290291 464.225018,7.88375769 C464.690227,6.38905288 465.521917,5.15439983 466.723246,4.17821768 C468.144148,3.00996083 469.667728,2.67956072 471.293195,3.18543649 C472.958155,3.70316872 474.04101,4.78684947 474.543341,6.43647874 C474.988014,7.85135003 474.952472,9.39348069 474.435134,11.0589186 L474.435134,11.0589186 Z" id="Fill-4" fill="#80583b"></path>
                <path d="M486.405779,21.2420397 C485.737584,22.3273013 484.775573,22.8726987 483.520535,22.878351 C482.425042,22.886136 481.248987,22.5011961 479.98842,21.7226217 C479.151992,21.2072608 478.28476,20.4769026 477.386724,19.5315473 L478.062028,18.4352196 C478.813155,19.3544908 479.641686,20.0935436 480.549989,20.6539591 C481.197648,21.0531267 481.722884,21.2554771 482.126487,21.2610101 C482.703062,21.2760283 483.202234,20.9408856 483.623212,20.2571628 C483.993642,19.6564354 483.887015,18.8003987 483.301752,17.6906337 C482.223636,15.6418369 481.681813,14.6079533 481.677074,14.5881925 C481.200808,13.3029519 481.27979,12.1465515 481.911653,11.1205722 C482.456635,10.2368705 483.255152,9.77367795 484.305624,9.72941382 C485.356097,9.68752098 486.476864,10.0329393 487.666346,10.76804 C488.279253,11.145866 489.092777,11.7782107 490.106917,12.6634933 L489.518494,13.6191242 C488.589656,12.752812 487.788769,12.112563 487.117415,11.6983772 C486.069312,11.0502238 485.25026,11.2043579 484.661837,12.1584079 C484.298516,12.7480694 484.41699,13.5859261 485.015681,14.6719782 C486.074841,16.5950965 486.626931,17.6115907 486.674321,17.7206701 C487.156116,18.9956351 487.066866,20.169425 486.405779,21.2420397" id="Fill-5" fill="#80583b"></path>
                <path d="M509.821043,36.9613388 C509.686772,37.0372202 509.580935,37.0190403 509.502742,36.9052182 C509.415071,36.7795397 509.430078,36.6688794 509.546182,36.5700755 C510.012181,36.2452084 510.260188,35.9235031 510.292571,35.6065403 C510.323374,35.2872062 510.144873,34.8508884 509.757067,34.2936346 L508.996462,33.2044208 L499.124392,40.1025112 L497.47286,37.7343802 L507.34493,30.8362899 L506.584325,29.7454952 C506.196519,29.1890319 505.847414,28.8712787 505.538591,28.7914452 C505.229768,28.7116116 504.841962,28.8349189 504.377543,29.1589955 C504.244852,29.2356673 504.134276,29.2103735 504.048184,29.0862759 C503.968412,28.9732443 503.986578,28.8673265 504.104262,28.7685227 L506.044871,27.4113528 L511.760862,35.6057499 L509.821043,36.9613388" id="Fill-6" fill="#80583b"></path>
                <g id="Group-10" transform="translate(504.131506, 43.582775)" fill="#80583b">
                    <path d="M7.54958361,7.81657432 C11.1646299,6.45782362 12.6842604,5.01212552 12.1092651,3.48185132 C11.5303206,1.93893022 9.43332523,1.84803067 5.81985861,3.2075718 C2.29485282,4.5331244 0.822611994,5.96775647 1.40234631,7.5090967 C1.97734165,9.04016133 4.02615748,9.14212692 7.54958361,7.81657432 Z M8.56530341,10.519848 C6.85532413,11.1624683 5.26855813,11.308698 3.80658508,10.9569562 C2.11793117,10.5554174 0.96636083,9.53892323 0.353453706,7.90510258 C-0.26498222,6.25863503 -0.0722640001,4.72836083 0.934767679,3.31427997 C1.80357932,2.0843695 3.0933697,1.1477089 4.80413882,0.504298156 C6.26769152,-0.0450513123 7.75256961,-0.146226466 9.25877307,0.203934418 C11.0524742,0.609425464 12.2490648,1.61011097 12.8485448,3.20441008 C13.4614519,4.83823072 13.2711032,6.35901976 12.2790783,7.76835803 C11.4355412,8.98878333 10.1978795,9.90489273 8.56530341,10.519848 L8.56530341,10.519848 Z" id="Fill-7"></path>
                    <path d="M10.6536107,25.8961001 C12.5981691,25.7316904 13.9314001,25.4036616 14.6540934,24.9104327 C15.6113659,24.2472612 16.021287,23.0869087 15.8822771,21.4317464 L15.8119824,20.6025844 L4.88944032,21.5242268 L4.95973508,22.3525984 C5.08136871,23.8022486 5.57501169,24.7958203 6.43987419,25.3341037 C7.3047367,25.8731776 8.70905225,26.0605097 10.6536107,25.8961001 Z M10.9339999,28.7274235 C8.19013474,28.9598102 6.29770502,28.423898 5.25750053,27.1228488 C4.53006823,26.2383566 4.06880823,24.6440575 3.87530018,22.3391611 L3.57200594,18.7387484 L14.2457519,17.8368667 C14.9202657,17.7799557 15.3712579,17.6400494 15.5955693,17.4211001 C15.8206705,17.198989 15.9083415,16.8061448 15.8609517,16.2417772 C15.8617416,16.0876431 15.9375651,16.0046479 16.0900021,15.992001 C16.2274323,15.9801445 16.3095745,16.0504929 16.3364287,16.2014652 L16.8166446,21.893358 C16.9911967,23.9634965 16.7250244,25.501675 16.0181277,26.5055223 C15.1382584,27.7749543 13.4440757,28.5171689 10.9339999,28.7274235 L10.9339999,28.7274235 Z" id="Fill-9"></path>
                </g>
                <path d="M513.10752,87.0572678 C516.897909,87.7939494 518.949094,87.3623741 519.261076,85.7585898 C519.575428,84.1405778 517.838595,82.9620453 514.048206,82.2237829 C510.352598,81.5029099 508.347222,81.9510842 508.03287,83.5698867 C507.720098,85.173671 509.411912,86.3363948 513.10752,87.0572678 Z M512.55543,89.8909625 C510.761729,89.5408016 509.335298,88.8325755 508.274558,87.7662843 C507.047164,86.5379547 506.599331,85.0677532 506.931849,83.3564703 C507.269106,81.6285884 508.235067,80.4271335 509.83368,79.7513151 C511.21667,79.1592823 512.805806,79.0391368 514.598717,79.3885073 C516.134144,79.6872902 517.451579,80.3812885 518.55102,81.4712927 C519.865295,82.7565333 520.360518,84.2370104 520.035108,85.9095621 C519.701801,87.6216354 518.742949,88.8167669 517.158552,89.4957471 C515.802416,90.0933128 514.267779,90.2237339 512.55543,89.8909625 L512.55543,89.8909625 Z" id="Fill-11" fill="#80583b"></path>
                <path d="M503.719616,102.925168 C502.569625,102.376609 501.925914,101.477889 501.784535,100.229008 C501.659742,99.1421656 501.914857,97.9280638 502.552249,96.5906547 C502.975597,95.7030008 503.60825,94.7623881 504.450207,93.768026 L505.612045,94.3221181 C504.778776,95.1670887 504.133486,96.0721321 503.675385,97.033296 C503.347606,97.7217613 503.203068,98.2671586 503.241769,98.6686975 C503.289159,99.2433408 503.675385,99.7049524 504.399658,100.050371 C505.03705,100.353896 505.875058,100.156288 506.914473,99.4551763 C508.833757,98.1620313 509.802877,97.5115067 509.821833,97.5051833 C511.048437,96.8941802 512.204746,96.8475448 513.29155,97.3660674 C514.229077,97.8126609 514.775639,98.5572468 514.930445,99.5990347 C515.086831,100.640032 514.86331,101.7909 514.26146,103.054008 C513.951847,103.704533 513.410815,104.581911 512.638362,105.686143 L511.626591,105.20319 C512.387986,104.185905 512.938497,103.320383 513.277334,102.606624 C513.808098,101.495278 513.56799,100.696943 512.55543,100.21399 C511.930675,99.9159975 511.111623,100.123881 510.097483,100.835269 C508.299833,102.096006 507.349669,102.755225 507.246201,102.812136 C506.032234,103.431044 504.856179,103.466613 503.719616,102.925168" id="Fill-12" fill="#80583b"></path>
                <g id="Group-16" transform="translate(102.671421, 37.842669)">
                    <mask id="mask-2" fill="white">
                        <use xlink:href="#path-1"></use>
                    </mask>
                    <g id="Clip-14"></g>
                    <path d="M67.9410706,0.539073867 L67.9505486,0.529588696 L46.0414884,0.529588696 L46.0501765,0.539073867 L44.8630639,0.539073867 L56.0478291,12.7496503 L56.0478291,48.2297216 C56.0478291,59.6901791 50.8483863,66.8443691 45.2879917,70.0906687 C42.8205667,71.4818271 40.342084,72.1331421 38.3145935,72.1331421 C26.9900287,72.1331421 19.4740181,61.7524133 19.4740181,47.7712717 L19.4740181,6.99057079 L25.1900089,0.529588696 L0,0.529588696 L5.71520097,6.99057079 L5.71520097,47.7712717 C5.71520097,62.9182988 17.9930892,74.8870034 33.3394621,74.8870034 C33.819678,74.8870034 34.2935753,74.873566 34.7627336,74.8498531 C48.8232653,74.3107792 58.0073942,63.9205652 58.1084923,48.2297216 L58.1084923,12.7496503 L69.2924677,0.539073867 L67.9410706,0.539073867" id="Fill-13" fill="#80583b" mask="url(#mask-2)"></path>
                    <path d="M116.00689,0 C128.073104,0 139.291832,5.71955792 146.488752,15.6758254 L128.073104,15.6758254 C120.557884,8.57933688 112.195966,4.66038053 104.999047,4.66038053 C94.5203884,4.66038053 87.6409798,12.8160464 87.6409798,24.7855414 C87.6409798,45.5469992 107.856647,70.544376 127.119781,70.544376 C135.480908,70.544376 141.51362,65.3544068 143.631151,57.0920327 L148.077097,57.0920327 C141.091062,68.531939 129.343149,75.2047566 116.00689,75.2047566 C95.3670848,75.2047566 78.5382032,58.363836 78.5382032,37.7090865 C78.5382032,16.841711 95.3670848,0 116.00689,0" id="Fill-15" fill="#80583b" mask="url(#mask-2)"></path>
                </g>
                <path d="M47.5311054,99.9073027 C43.9223778,92.0077364 46.2958133,82.3739647 53.7241528,74.7644866 C61.6658811,66.6285814 65.5897504,59.4894096 67.5272004,54.2330442 L67.5272004,110.702217 C58.1598312,110.899825 50.7370204,106.924748 47.5311054,99.9073027 Z M81.2868073,106.162773 L81.2868073,44.7273223 L87.2144722,38.372258 L61.4936984,38.372258 L67.5272004,45.7872902 C67.5177224,46.0244194 67.4995564,46.2599678 67.4837598,46.4963067 L67.4837598,46.5160674 C67.1472927,50.1820859 65.0376601,60.5288262 52.4019795,73.4721321 C46.6686124,79.345824 43.7652019,86.6201595 44.115096,93.4210269 L21.273248,38.372258 L5.60936391,38.372258 L9.98106614,46.6480694 L9.98106614,101.781414 L0,112.518628 L21.8032231,112.518628 L11.8284756,101.781414 L11.8284756,50.6800574 L37.0437591,112.41271 L37.0437591,112.518628 L47.9457655,112.518628 L47.9457655,104.184324 C51.9644143,109.542655 58.7032334,112.569215 66.8597951,112.569215 C67.4016176,112.569215 67.9552876,112.545502 68.5105372,112.518628 L87.2144722,112.518628 L81.2868073,106.162773 L81.2868073,106.162773 Z" id="Fill-17" fill="#80583b"></path>
                <polyline id="Fill-18" fill="#80583b" points="324.735729 44.8332401 330.452509 38.372258 305.260131 38.372258 310.976911 44.8332401 310.976911 69.812437 286.208671 69.812437 286.208671 44.8332401 291.925452 38.372258 266.734653 38.372258 272.449854 44.8332401 272.449854 106.056855 266.734653 112.518628 291.925452 112.518628 286.208671 106.056855 286.208671 71.6612549 310.976911 71.6612549 310.976911 106.056855 305.260131 112.518628 330.452509 112.518628 324.735729 106.056855 324.735729 44.8332401"></polyline>
                <path d="M359.572706,85.4297706 L371.352212,51.5400462 L383.408948,85.4297706 L359.572706,85.4297706 Z M410.895779,112.518628 L405.920648,106.904197 L381.470709,38.4773853 L381.470709,38.372258 L370.357818,38.372258 L370.357818,48.7711668 L351.76051,102.277805 L342.203582,112.518628 L367.076079,112.518628 L353.991776,101.486584 L358.929785,87.2785884 L384.084252,87.2785884 L391.10267,106.904197 L386.233376,112.518628 L410.895779,112.518628 L410.895779,112.518628 Z" id="Fill-19" fill="#80583b"></path>
                <path d="M477.40805,99.7207611 C478.205777,97.5731603 478.637813,95.1939633 478.637813,92.6045118 C478.637813,88.5614578 477.817971,85.230582 476.343361,82.3960968 C476.242263,82.1779379 476.126948,81.9495034 475.982409,81.7013081 C475.79285,81.3748601 475.589864,81.0531547 475.3774,80.7354015 C474.465938,79.3497762 473.375974,78.092991 472.139892,76.9302672 C464.920067,69.9491816 453.448594,65.8998041 453.448594,65.8998041 C453.232971,65.8112759 453.018927,65.7227476 452.803304,65.6342194 C451.94713,65.2824776 451.076738,64.9307359 450.200818,64.5766228 C440.667585,60.7201105 429.862727,56.3482373 429.862727,49.5173335 C429.862727,47.4464046 430.565675,45.7082471 431.951035,44.3518677 C434.670415,41.6904868 440.083902,40.3712577 447.618868,40.538829 C451.404517,40.538829 455.477664,41.4003987 458.905521,42.8990557 L474.192657,60.9343173 L471.229219,38.372258 L463.285122,38.372258 L463.285122,38.3706771 L447.618868,38.3706771 C447.56121,38.3706771 447.508292,38.372258 447.451424,38.372258 L446.144258,38.372258 C439.475733,38.372258 434.607229,39.0077644 430.797095,41.3387451 C425.082684,44.8332401 422.859316,52.35419 422.859316,57.9686206 C422.859316,68.0308058 430.162073,73.9629896 436.935644,77.1397314 L450.166066,83.3896684 C452.631911,84.5634583 455.361559,85.8660884 458.007486,87.3394516 C459.591882,88.2990347 461.256052,89.4293509 462.808065,90.7090585 C464.556746,92.2764829 470.853261,98.7358842 468.377938,105.030085 C466.749311,108.68899 461.758383,110.480897 453.23613,110.480897 C446.901703,110.480897 442.446279,109.171943 440.197637,108.308793 L423.281874,90.062486 L426.562823,112.41271 L444.339499,112.476735 L454.717849,112.649839 C456.180612,112.649839 457.606253,112.551035 458.990033,112.372398 C467.072351,111.60568 473.517353,107.723874 476.620591,101.5348 C476.929414,100.94751 477.217701,100.348363 477.457019,99.7231323 L477.40805,99.7207611" id="Fill-20" fill="#80583b"></path>
                <path d="M420.474823,16.41804 C421.155655,17.4946069 421.222001,18.5996293 420.677809,19.7323167 C420.204701,20.7203553 419.342208,21.6087997 418.08954,22.400021 C417.25864,22.926448 416.223174,23.3856883 414.980774,23.7785325 L414.293623,22.6901091 C415.448352,22.4182009 416.47592,21.9961108 417.376324,21.427791 C418.020035,21.0199287 418.431536,20.6349888 418.613986,20.2761332 C418.879369,19.7631435 418.797226,19.1663682 418.369139,18.4881785 C417.991601,17.8921936 417.177288,17.6123811 415.924619,17.6511122 C413.611211,17.7214605 412.444634,17.7546586 412.425678,17.7499161 C411.063223,17.6131715 410.058561,17.0353665 409.41564,16.0172916 C408.861181,15.1391228 408.794835,14.2190613 409.218183,13.2547356 C409.639952,12.2912003 410.442418,11.4351637 411.624002,10.6866256 C412.23138,10.3032666 413.157059,9.84876889 414.39788,9.32550364 L414.99657,10.2740207 C413.811037,10.7293089 412.884568,11.1672076 412.218743,11.5900881 C411.177748,12.2485171 410.956596,13.0515949 411.554497,14.0001119 C411.924926,14.5858212 412.728972,14.8466634 413.966634,14.7842194 C416.157619,14.6767208 417.313138,14.6261332 417.431612,14.6324566 C418.787748,14.7581351 419.802678,15.3533296 420.474823,16.41804" id="Fill-21" fill="#80583b"></path>
                <path d="M432.326203,8.68446419 C431.145409,5.00421796 429.778216,3.41545187 428.223833,3.91421377 C426.656023,4.41771824 426.461725,6.50840795 427.640939,10.1886542 C428.79014,13.7748391 430.149435,15.3169698 431.718825,14.8134653 C433.272418,14.3147034 433.475404,12.2714396 432.326203,8.68446419 Z M435.073228,7.80234331 C435.631637,9.5420817 435.697982,11.1355904 435.275424,12.580498 C434.792049,14.2490976 433.721041,15.3477966 432.060821,15.8821279 C430.386384,16.4196209 428.869123,16.1508158 427.507458,15.0743075 C426.322715,14.1463416 425.450744,12.8113039 424.893125,11.0715655 C424.416068,9.58081281 424.387634,8.09164102 424.812562,6.60246922 C425.305415,4.82953274 426.362206,3.68261752 427.982145,3.16172356 C429.643155,2.62897314 431.151728,2.89297706 432.510233,3.9561066 C433.686289,4.85798825 434.540883,6.13927672 435.073228,7.80234331 L435.073228,7.80234331 Z" id="Fill-22" fill="#80583b"></path>
                <path d="M456.729543,12.9433058 L453.864834,12.9614857 L453.800068,2.84397034 L450.294018,12.9836178 L448.654334,12.9954743 L443.849805,1.91047146 L443.92168,13.0255106 L442.924916,13.0326245 L442.855411,2.31201035 C442.851462,1.63382065 442.747204,1.17378987 442.545008,0.93270845 C442.343602,0.691627029 441.958955,0.572271964 441.391858,0.57701455 C441.239421,0.563577224 441.162808,0.481372412 441.161222,0.328028819 C441.160438,0.189703414 441.235472,0.113822048 441.388699,0.0988038612 L445.934163,0.0695579183 L450.254527,9.99262731 L453.69897,0.0197607722 L456.645821,0 L456.729543,12.9433058" id="Fill-23" fill="#80583b"></path>
                <path d="M471.678632,10.2013011 C472.824673,6.51077924 472.618528,4.42404169 471.059406,3.93871712 C469.486067,3.45023083 468.127562,5.05006295 466.98073,8.73979435 C465.863123,12.3386262 466.090593,14.3810996 467.663932,14.8703763 C469.223054,15.3557009 470.561024,13.8001329 471.678632,10.2013011 Z M474.435134,11.0589186 C473.893312,12.80419 473.032398,14.1471321 471.857133,15.0869544 C470.504946,16.1753777 468.995584,16.4591424 467.331414,15.9414102 C465.652238,15.4205162 464.564644,14.3265599 464.067052,12.6634933 C463.629487,11.2233282 463.683195,9.6290291 464.225018,7.88375769 C464.690227,6.38905288 465.521917,5.15439983 466.723246,4.17821768 C468.144148,3.00996083 469.667728,2.67956072 471.293195,3.18543649 C472.958155,3.70316872 474.04101,4.78684947 474.543341,6.43647874 C474.988014,7.85135003 474.952472,9.39348069 474.435134,11.0589186 L474.435134,11.0589186 Z" id="Fill-24" fill="#80583b"></path>
                <path d="M486.405779,21.2420397 C485.737584,22.3273013 484.775573,22.8726987 483.520535,22.878351 C482.425042,22.886136 481.248987,22.5011961 479.98842,21.7226217 C479.151992,21.2072608 478.28476,20.4769026 477.386724,19.5315473 L478.062028,18.4352196 C478.813155,19.3544908 479.641686,20.0935436 480.549989,20.6539591 C481.197648,21.0531267 481.722884,21.2554771 482.126487,21.2610101 C482.703062,21.2760283 483.202234,20.9408856 483.623212,20.2571628 C483.993642,19.6564354 483.887015,18.8003987 483.301752,17.6906337 C482.223636,15.6418369 481.681813,14.6079533 481.677074,14.5881925 C481.200808,13.3029519 481.27979,12.1465515 481.911653,11.1205722 C482.456635,10.2368705 483.255152,9.77367795 484.305624,9.72941382 C485.356097,9.68752098 486.476864,10.0329393 487.666346,10.76804 C488.279253,11.145866 489.092777,11.7782107 490.106917,12.6634933 L489.518494,13.6191242 C488.589656,12.752812 487.788769,12.112563 487.117415,11.6983772 C486.069312,11.0502238 485.25026,11.2043579 484.661837,12.1584079 C484.298516,12.7480694 484.41699,13.5859261 485.015681,14.6719782 C486.074841,16.5950965 486.626931,17.6115907 486.674321,17.7206701 C487.156116,18.9956351 487.066866,20.169425 486.405779,21.2420397" id="Fill-25" fill="#80583b"></path>
                <path d="M509.821043,36.9613388 C509.686772,37.0372202 509.580935,37.0190403 509.502742,36.9052182 C509.415071,36.7795397 509.430078,36.6688794 509.546182,36.5700755 C510.012181,36.2452084 510.260188,35.9235031 510.292571,35.6065403 C510.323374,35.2872062 510.144873,34.8508884 509.757067,34.2936346 L508.996462,33.2044208 L499.124392,40.1025112 L497.47286,37.7343802 L507.34493,30.8362899 L506.584325,29.7454952 C506.196519,29.1890319 505.847414,28.8712787 505.538591,28.7914452 C505.229768,28.7116116 504.841962,28.8349189 504.377543,29.1589955 C504.244852,29.2356673 504.134276,29.2103735 504.048184,29.0862759 C503.968412,28.9732443 503.986578,28.8673265 504.104262,28.7685227 L506.044871,27.4113528 L511.760862,35.6057499 L509.821043,36.9613388" id="Fill-26" fill="#80583b"></path>
                <g id="Group-30" transform="translate(504.131506, 43.582775)" fill="#80583b">
                    <path d="M7.54958361,7.81657432 C11.1646299,6.45782362 12.6842604,5.01212552 12.1092651,3.48185132 C11.5303206,1.93893022 9.43332523,1.84803067 5.81985861,3.2075718 C2.29485282,4.5331244 0.822611994,5.96775647 1.40234631,7.5090967 C1.97734165,9.04016133 4.02615748,9.14212692 7.54958361,7.81657432 Z M8.56530341,10.519848 C6.85532413,11.1624683 5.26855813,11.308698 3.80658508,10.9569562 C2.11793117,10.5554174 0.96636083,9.53892323 0.353453706,7.90510258 C-0.26498222,6.25863503 -0.0722640001,4.72836083 0.934767679,3.31427997 C1.80357932,2.0843695 3.0933697,1.1477089 4.80413882,0.504298156 C6.26769152,-0.0450513123 7.75256961,-0.146226466 9.25877307,0.203934418 C11.0524742,0.609425464 12.2490648,1.61011097 12.8485448,3.20441008 C13.4614519,4.83823072 13.2711032,6.35901976 12.2790783,7.76835803 C11.4355412,8.98878333 10.1978795,9.90489273 8.56530341,10.519848 L8.56530341,10.519848 Z" id="Fill-27"></path>
                    <path d="M10.6536107,25.8961001 C12.5981691,25.7316904 13.9314001,25.4036616 14.6540934,24.9104327 C15.6113659,24.2472612 16.021287,23.0869087 15.8822771,21.4317464 L15.8119824,20.6025844 L4.88944032,21.5242268 L4.95973508,22.3525984 C5.08136871,23.8022486 5.57501169,24.7958203 6.43987419,25.3341037 C7.3047367,25.8731776 8.70905225,26.0605097 10.6536107,25.8961001 Z M10.9339999,28.7274235 C8.19013474,28.9598102 6.29770502,28.423898 5.25750053,27.1228488 C4.53006823,26.2383566 4.06880823,24.6440575 3.87530018,22.3391611 L3.57200594,18.7387484 L14.2457519,17.8368667 C14.9202657,17.7799557 15.3712579,17.6400494 15.5955693,17.4211001 C15.8206705,17.198989 15.9083415,16.8061448 15.8609517,16.2417772 C15.8617416,16.0876431 15.9375651,16.0046479 16.0900021,15.992001 C16.2274323,15.9801445 16.3095745,16.0504929 16.3364287,16.2014652 L16.8166446,21.893358 C16.9911967,23.9634965 16.7250244,25.501675 16.0181277,26.5055223 C15.1382584,27.7749543 13.4440757,28.5171689 10.9339999,28.7274235 L10.9339999,28.7274235 Z" id="Fill-29"></path>
                </g>
                <path d="M513.10752,87.0572678 C516.897909,87.7939494 518.949094,87.3623741 519.261076,85.7585898 C519.575428,84.1405778 517.838595,82.9620453 514.048206,82.2237829 C510.352598,81.5029099 508.347222,81.9510842 508.03287,83.5698867 C507.720098,85.173671 509.411912,86.3363948 513.10752,87.0572678 Z M512.55543,89.8909625 C510.761729,89.5408016 509.335298,88.8325755 508.274558,87.7662843 C507.047164,86.5379547 506.599331,85.0677532 506.931849,83.3564703 C507.269106,81.6285884 508.235067,80.4271335 509.83368,79.7513151 C511.21667,79.1592823 512.805806,79.0391368 514.598717,79.3885073 C516.134144,79.6872902 517.451579,80.3812885 518.55102,81.4712927 C519.865295,82.7565333 520.360518,84.2370104 520.035108,85.9095621 C519.701801,87.6216354 518.742949,88.8167669 517.158552,89.4957471 C515.802416,90.0933128 514.267779,90.2237339 512.55543,89.8909625 L512.55543,89.8909625 Z" id="Fill-31" fill="#80583b"></path>
                <path d="M503.719616,102.925168 C502.569625,102.376609 501.925914,101.477889 501.784535,100.229008 C501.659742,99.1421656 501.914857,97.9280638 502.552249,96.5906547 C502.975597,95.7030008 503.60825,94.7623881 504.450207,93.768026 L505.612045,94.3221181 C504.778776,95.1670887 504.133486,96.0721321 503.675385,97.033296 C503.347606,97.7217613 503.203068,98.2671586 503.241769,98.6686975 C503.289159,99.2433408 503.675385,99.7049524 504.399658,100.050371 C505.03705,100.353896 505.875058,100.156288 506.914473,99.4551763 C508.833757,98.1620313 509.802877,97.5115067 509.821833,97.5051833 C511.048437,96.8941802 512.204746,96.8475448 513.29155,97.3660674 C514.229077,97.8126609 514.775639,98.5572468 514.930445,99.5990347 C515.086831,100.640032 514.86331,101.7909 514.26146,103.054008 C513.951847,103.704533 513.410815,104.581911 512.638362,105.686143 L511.626591,105.20319 C512.387986,104.185905 512.938497,103.320383 513.277334,102.606624 C513.808098,101.495278 513.56799,100.696943 512.55543,100.21399 C511.930675,99.9159975 511.111623,100.123881 510.097483,100.835269 C508.299833,102.096006 507.349669,102.755225 507.246201,102.812136 C506.032234,103.431044 504.856179,103.466613 503.719616,102.925168" id="Fill-32" fill="#80583b"></path>
                <g id="Group-36" transform="translate(102.671421, 37.842669)">
                    <mask id="mask-4" fill="white">
                        <use xlink:href="#path-3"></use>
                    </mask>
                    <g id="Clip-34"></g>
                    <path d="M67.9410706,0.539073867 L67.9505486,0.529588696 L46.0414884,0.529588696 L46.0501765,0.539073867 L44.8630639,0.539073867 L56.0478291,12.7496503 L56.0478291,48.2297216 C56.0478291,59.6901791 50.8483863,66.8443691 45.2879917,70.0906687 C42.8205667,71.4818271 40.342084,72.1331421 38.3145935,72.1331421 C26.9900287,72.1331421 19.4740181,61.7524133 19.4740181,47.7712717 L19.4740181,6.99057079 L25.1900089,0.529588696 L0,0.529588696 L5.71520097,6.99057079 L5.71520097,47.7712717 C5.71520097,62.9182988 17.9930892,74.8870034 33.3394621,74.8870034 C33.819678,74.8870034 34.2935753,74.873566 34.7627336,74.8498531 C48.8232653,74.3107792 58.0073942,63.9205652 58.1084923,48.2297216 L58.1084923,12.7496503 L69.2924677,0.539073867 L67.9410706,0.539073867" id="Fill-33" fill="#80583b" mask="url(#mask-4)"></path>
                    <path d="M116.00689,0 C128.073104,0 139.291832,5.71955792 146.488752,15.6758254 L128.073104,15.6758254 C120.557884,8.57933688 112.195966,4.66038053 104.999047,4.66038053 C94.5203884,4.66038053 87.6409798,12.8160464 87.6409798,24.7855414 C87.6409798,45.5469992 107.856647,70.544376 127.119781,70.544376 C135.480908,70.544376 141.51362,65.3544068 143.631151,57.0920327 L148.077097,57.0920327 C141.091062,68.531939 129.343149,75.2047566 116.00689,75.2047566 C95.3670848,75.2047566 78.5382032,58.363836 78.5382032,37.7090865 C78.5382032,16.841711 95.3670848,0 116.00689,0" id="Fill-35" fill="#80583b" mask="url(#mask-4)"></path>
                </g>
                <path d="M47.5311054,99.9073027 C43.9223778,92.0077364 46.2958133,82.3739647 53.7241528,74.7644866 C61.6658811,66.6285814 65.5897504,59.4894096 67.5272004,54.2330442 L67.5272004,110.702217 C58.1598312,110.899825 50.7370204,106.924748 47.5311054,99.9073027 Z M81.2868073,106.162773 L81.2868073,44.7273223 L87.2144722,38.372258 L61.4936984,38.372258 L67.5272004,45.7872902 C67.5177224,46.0244194 67.4995564,46.2599678 67.4837598,46.4963067 L67.4837598,46.5160674 C67.1472927,50.1820859 65.0376601,60.5288262 52.4019795,73.4721321 C46.6686124,79.345824 43.7652019,86.6201595 44.115096,93.4210269 L21.273248,38.372258 L5.60936391,38.372258 L9.98106614,46.6480694 L9.98106614,101.781414 L0,112.518628 L21.8032231,112.518628 L11.8284756,101.781414 L11.8284756,50.6800574 L37.0437591,112.41271 L37.0437591,112.518628 L47.9457655,112.518628 L47.9457655,104.184324 C51.9644143,109.542655 58.7032334,112.569215 66.8597951,112.569215 C67.4016176,112.569215 67.9552876,112.545502 68.5105372,112.518628 L87.2144722,112.518628 L81.2868073,106.162773 L81.2868073,106.162773 Z" id="Fill-37" fill="#80583b"></path>
                <polyline id="Fill-38" fill="#80583b" points="324.735729 44.8332401 330.452509 38.372258 305.260131 38.372258 310.976911 44.8332401 310.976911 69.812437 286.208671 69.812437 286.208671 44.8332401 291.925452 38.372258 266.734653 38.372258 272.449854 44.8332401 272.449854 106.056855 266.734653 112.518628 291.925452 112.518628 286.208671 106.056855 286.208671 71.6612549 310.976911 71.6612549 310.976911 106.056855 305.260131 112.518628 330.452509 112.518628 324.735729 106.056855 324.735729 44.8332401"></polyline>
                <path d="M359.572706,85.4297706 L371.352212,51.5400462 L383.408948,85.4297706 L359.572706,85.4297706 Z M410.895779,112.518628 L405.920648,106.904197 L381.470709,38.4773853 L381.470709,38.372258 L370.357818,38.372258 L370.357818,48.7711668 L351.76051,102.277805 L342.203582,112.518628 L367.076079,112.518628 L353.991776,101.486584 L358.929785,87.2785884 L384.084252,87.2785884 L391.10267,106.904197 L386.233376,112.518628 L410.895779,112.518628 L410.895779,112.518628 Z" id="Fill-39" fill="#80583b"></path>
                <path d="M477.40805,99.7207611 C478.205777,97.5731603 478.637813,95.1939633 478.637813,92.6045118 C478.637813,88.5614578 477.817971,85.230582 476.343361,82.3960968 C476.242263,82.1779379 476.126948,81.9495034 475.982409,81.7013081 C475.79285,81.3748601 475.589864,81.0531547 475.3774,80.7354015 C474.465938,79.3497762 473.375974,78.092991 472.139892,76.9302672 C464.920067,69.9491816 453.448594,65.8998041 453.448594,65.8998041 C453.232971,65.8112759 453.018927,65.7227476 452.803304,65.6342194 C451.94713,65.2824776 451.076738,64.9307359 450.200818,64.5766228 C440.667585,60.7201105 429.862727,56.3482373 429.862727,49.5173335 C429.862727,47.4464046 430.565675,45.7082471 431.951035,44.3518677 C434.670415,41.6904868 440.083902,40.3712577 447.618868,40.538829 C451.404517,40.538829 455.477664,41.4003987 458.905521,42.8990557 L474.192657,60.9343173 L471.229219,38.372258 L463.285122,38.372258 L463.285122,38.3706771 L447.618868,38.3706771 C447.56121,38.3706771 447.508292,38.372258 447.451424,38.372258 L446.144258,38.372258 C439.475733,38.372258 434.607229,39.0077644 430.797095,41.3387451 C425.082684,44.8332401 422.859316,52.35419 422.859316,57.9686206 C422.859316,68.0308058 430.162073,73.9629896 436.935644,77.1397314 L450.166066,83.3896684 C452.631911,84.5634583 455.361559,85.8660884 458.007486,87.3394516 C459.591882,88.2990347 461.256052,89.4293509 462.808065,90.7090585 C464.556746,92.2764829 470.853261,98.7358842 468.377938,105.030085 C466.749311,108.68899 461.758383,110.480897 453.23613,110.480897 C446.901703,110.480897 442.446279,109.171943 440.197637,108.308793 L423.281874,90.062486 L426.562823,112.41271 L444.339499,112.476735 L454.717849,112.649839 C456.180612,112.649839 457.606253,112.551035 458.990033,112.372398 C467.072351,111.60568 473.517353,107.723874 476.620591,101.5348 C476.929414,100.94751 477.217701,100.348363 477.457019,99.7231323 L477.40805,99.7207611" id="Fill-40" fill="#80583b"></path>
            </g>
        </g>
    </g>
</svg>