<?xml version="1.0" encoding="utf-8"?>
<!-- Generator: Adobe Illustrator 18.0.0, SVG Export Plug-In . SVG Version: 6.00 Build 0)  -->
<!DOCTYPE svg PUBLIC "-//W3C//DTD SVG 1.1//EN" "http://www.w3.org/Graphics/SVG/1.1/DTD/svg11.dtd">
<svg version="1.1" id="Layer_1" xmlns="http://www.w3.org/2000/svg" xmlns:xlink="http://www.w3.org/1999/xlink" x="0px" y="0px"
	 viewBox="0 0 960 560" enable-background="new 0 0 960 560" xml:space="preserve">
<rect x="569" y="261.3" fill-rule="evenodd" clip-rule="evenodd" fill="#5A785A" width="28.6" height="169.7"/>
<path fill-rule="evenodd" clip-rule="evenodd" fill="#5A785A" d="M710.2,255.5c-34.3,0-88.1,21-88.8,90.6
	c0,59.6,50.7,90.4,88.8,90.4c38.1,0,88.6-25.2,88.6-90.4C798.8,280.9,744.5,255.5,710.2,255.5 M710.2,409.2
	c-25.7,0-59.9-21.5-59.9-63.2c0.4-48.7,36.8-63.3,59.9-63.3c23.1,0,59.8,17.8,59.8,63.3C770,391.6,735.9,409.2,710.2,409.2"/>
<path fill-rule="evenodd" clip-rule="evenodd" fill="#5A785A" d="M359.3,155.7c-0.1,10.1-8.9,18.9-18.9,18.9
	c-10.1-0.1-18.9-8.8-19-18.9c-0.1-10.4,8.9-19.2,19.4-19.1C351,136.7,359.4,145.4,359.3,155.7"/>
<path fill-rule="evenodd" clip-rule="evenodd" fill="#5A785A" d="M602.3,155.7c-0.1,10.1-8.9,18.9-18.9,18.9
	c-10.1-0.1-18.9-8.8-19-18.9c-0.1-10.4,8.9-19.2,19.4-19.1C594,136.7,602.4,145.4,602.3,155.7"/>
<path fill-rule="evenodd" clip-rule="evenodd" fill="#5A785A" d="M100.8,255.5c-34.3,0-88.1,21-88.8,90.6
	c0,59.6,50.7,90.4,88.8,90.4s88.6-25.2,88.6-90.4C189.5,280.9,135.1,255.5,100.8,255.5 M100.8,409.2c-25.7,0-59.9-21.5-59.9-63.2
	c0.4-48.7,36.8-63.3,59.9-63.3c23.1,0,59.8,17.8,59.8,63.3C160.6,391.6,126.5,409.2,100.8,409.2"/>
<path fill="#5A785A" d="M468,409.2c-25.7,0-59.9-21.5-59.9-63.2c0.4-48.7,36.8-63.3,59.9-63.3c17.4,0,42.3,10,53.7,34.3l25.5-13.4
	c-17.1-34-53.7-48.1-79.2-48.1c-34.3,0-88.1,21-88.8,90.6c0,59.6,50.7,90.4,88.8,90.4c29.7,0,66.9-15.3,81.9-52.8l-27.5-9.4
	C511.8,399.1,487.5,409.2,468,409.2"/>
<path fill="#5A785A" d="M906.7,339c-14.9-4.3-30.4-6.9-45.5-10.7c-9.2-2.3-16.1-7.3-17.5-17.1c-1.6-10.6,2.1-19.1,11.6-25
	c15.8-9.9,45.9-7.3,57.3,9.7c0.5,0.8,2.3,3.7,3.4,7l25.8-10.9c-1.4-3-2.7-5.8-4.4-8.3c-14.8-22.8-51.6-34.1-81.2-25.1
	c-25.1,7.6-42.1,28.5-41.2,50.5c1,24.6,14.8,39.6,43.3,46.5c12.8,3.1,25.8,5.3,38.4,8.7c11.1,3,16.7,10.1,17.2,19.4
	c0.5,10.8-4.4,18.9-14.4,23.5c-22.8,10.5-51.6,1.4-63.2-20.5c-8.6,1.8-17.3,3.6-26.5,5.5c5.6,19.5,17.8,31.5,35.9,37.8
	c7.6,2.6,15.9,4.7,24,5.7c0.8,0.1,1.6,0.2,2.4,0.3c26.1,2.8,57.4-8.6,67.3-34.7C949.6,374.6,935.4,347.3,906.7,339"/>
<path fill="#5A785A" d="M326.1,261.3h-77.7v-73c0,0,0-36.9,33-36.9l9.2,0l10.2-29.8l-19.9-1v0v0l-0.5,0c-60.6,0-60.6,67.6-60.6,67.6
	v73h-26.4v25.2h26.4V431h28.6V286.5h77.7V431h28.6V286.5v-25.2H326.1z"/>
</svg>
