<svg id="Capa_1" data-name="Capa 1" xmlns="http://www.w3.org/2000/svg" viewBox="115.51 147.22 560.99 118.21"><defs><style>.cls-1{fill:#3c3c3b;}</style></defs><path class="cls-1" d="M325.85,211.89c12.45,9.16,26.61,17.46,26.61,29.3,0,11.11-13.06,23.68-32.47,23.68-14.77,0-22.95-3.3-30.39-11.6L304,238c5.37,8.67,12.94,17,27.22,17,5.13,0,7.2-1.46,7.2-4,0-5.61-12.64-16.17-25.63-26.49-12.45-9.88-21.36-16.84-21.36-27.71,0-11.1,10.13-22.7,30.64-22.7,13.67,0,21.24,3.9,25,7.32L340,200.54c-8.42-6.72-18.07-15.51-30.88-15.51-3.67,0-6.11.76-6.11,3.79C303,193.09,314.6,203.62,325.85,211.89Z"/><path class="cls-1" d="M243.09,263.62H185c4.53-5.22,4.75-13.06,4.76-14.16V190.37c0-1.1-.23-8.94-4.76-14.16h24.78a29.1,29.1,0,0,0-4.64,14.29v64.69h18.8a8.57,8.57,0,0,0,3.17-.73,18.09,18.09,0,0,0,2-1.1l7.7-6Z"/><path class="cls-1" d="M443.71,263.64H414.29s3.5-3.58,3.5-8.3a9.63,9.63,0,0,0-.32-2.44,92.71,92.71,0,0,0-5.37-14.77H384.87l-2.19,7.94c-1.29,4.53-2.27,7.9-2.27,10.85a10.75,10.75,0,0,0,2.27,6.72h-22.1a43.93,43.93,0,0,0,11.11-17.57l18.68-54.82c1.88-5,2.64-8.17,2.64-11.06a21.64,21.64,0,0,0-.81-5.54h13.91l22.34,61.28C432.36,245.58,436.27,258,443.71,263.64Zm-45.53-62.37L387.8,229.71l21.25.12Z"/><path class="cls-1" d="M175,263.65H115.51c4.53-5.22,4.75-13.06,4.76-14.16V190.4c0-1.1-.23-8.94-4.76-14.16H175l-6.35,16.24-7.69-6a19.42,19.42,0,0,0-1.95-1.1,8.6,8.6,0,0,0-3.18-.73H137v30.76h12.95c1.09,0,8.94-.23,14.15-4.76v17.82a29,29,0,0,0-14.28-4.64H137v31.37h18.8a8.6,8.6,0,0,0,3.18-.73,19.42,19.42,0,0,0,1.95-1.1l7.69-6Z"/><path class="cls-1" d="M550.45,174.61c-21.12,0-38.08,12.08-38.08,45.53s17,45.29,38.08,45.29,38.09-11.84,38.09-45.29C588.54,187.18,571.57,174.61,550.45,174.61Zm13.43,81.06c-22.46,0-30.4-15-34.91-31.87a89.31,89.31,0,0,1-3.42-22.1c0-8.66,2.4-14.4,8-14.4h.11c28.07,0,31.73,14,36.74,32.72,1.94,7.24,3.64,15.23,3.64,21.81C574,249.78,571.5,255.67,563.88,255.67Z"/><path class="cls-1" d="M619.48,176.24l42,60.3V193.81c0-8.17-1.34-12.33-4.39-17.57h19.41c-3,5.24-4.4,9.52-4.4,16.84v72.27s-6.1-.12-10.13-2.2c-3.78-1.95-7.35-7-7.35-7l-37.45-52.12v42c0,8.18,1.47,12.33,4.52,17.58H602.27c3.05-5.25,4.39-9.4,4.39-17.58V193.81c0-8.17-1.34-12.33-4.39-17.57Z"/><path class="cls-1" d="M510.23,263.62H452.12c4.54-5.22,4.75-13.06,4.76-14.16V190.37c0-1.1-.22-8.94-4.76-14.16H476.9a29.1,29.1,0,0,0-4.64,14.29v64.69h18.8a8.6,8.6,0,0,0,3.18-.73,19.42,19.42,0,0,0,1.95-1.1l7.69-6Z"/><path class="cls-1" d="M576.54,147.22a64.84,64.84,0,0,1-25.76,17.83l9.16-17.83Z"/></svg>